<svg width="25" height="25" viewBox="0 0 25 25" fill="none" xmlns="http://www.w3.org/2000/svg">
<mask id="mask0_1611_15599" style="mask-type:alpha" maskUnits="userSpaceOnUse" x="0" y="0" width="25" height="25">
<rect width="25" height="25" fill="#D9D9D9"/>
</mask>
<g mask="url(#mask0_1611_15599)">
<path d="M11.0417 14.3752L8.80208 12.1356C8.61111 11.9446 8.36805 11.8491 8.07291 11.8491C7.77777 11.8491 7.53472 11.9446 7.34375 12.1356C7.15277 12.3266 7.05729 12.5696 7.05729 12.8647C7.05729 13.1599 7.15277 13.4029 7.34375 13.5939L10.3125 16.5627C10.5208 16.771 10.7639 16.8752 11.0417 16.8752C11.3194 16.8752 11.5625 16.771 11.7708 16.5627L17.6562 10.6772C17.8472 10.4863 17.9427 10.2432 17.9427 9.94808C17.9427 9.65294 17.8472 9.40989 17.6562 9.21891C17.4653 9.02794 17.2222 8.93246 16.9271 8.93246C16.6319 8.93246 16.3889 9.02794 16.1979 9.21891L11.0417 14.3752ZM12.5 22.9168C11.059 22.9168 9.70486 22.6434 8.4375 22.0965C7.17013 21.5496 6.0677 20.8075 5.1302 19.87C4.1927 18.9325 3.45052 17.83 2.90364 16.5627C2.35677 15.2953 2.08333 13.9411 2.08333 12.5002C2.08333 11.0592 2.35677 9.70502 2.90364 8.43766C3.45052 7.1703 4.1927 6.06787 5.1302 5.13037C6.0677 4.19287 7.17013 3.45068 8.4375 2.90381C9.70486 2.35693 11.059 2.0835 12.5 2.0835C13.941 2.0835 15.2951 2.35693 16.5625 2.90381C17.8299 3.45068 18.9323 4.19287 19.8698 5.13037C20.8073 6.06787 21.5495 7.1703 22.0963 8.43766C22.6432 9.70502 22.9167 11.0592 22.9167 12.5002C22.9167 13.9411 22.6432 15.2953 22.0963 16.5627C21.5495 17.83 20.8073 18.9325 19.8698 19.87C18.9323 20.8075 17.8299 21.5496 16.5625 22.0965C15.2951 22.6434 13.941 22.9168 12.5 22.9168Z" fill="#11805D"/>
</g>
</svg>
