<?xml version="1.0" encoding="utf-8"?>
<!-- Generator: Adobe Illustrator 26.0.1, SVG Export Plug-In . SVG Version: 6.00 Build 0)  -->
<svg version="1.1" id="Layer_1" xmlns="http://www.w3.org/2000/svg" xmlns:xlink="http://www.w3.org/1999/xlink" x="0px" y="0px"
	 viewBox="0 0 108 124" style="enable-background:new 0 0 108 124;" xml:space="preserve">
<style type="text/css">
	.st0{fill:#15416C;}
</style>
<path class="st0" d="M42.31,72.99c-1.28-0.14-2.56-0.3-3.82-0.5L42.31,72.99z"/>
<path class="st0" d="M103.19,55.27c0.04,1.01-0.12,2.03-0.52,2.95c0,0.01-0.01,0.01-0.01,0.02c-0.31,0.71-0.65,1.31-0.97,1.79
	c0,0-1.68,2.51-4.82,4.15c-7.23,3.77-21.32,0.62-26.68-0.79c-5.74-1.51-11.68-3.5-17.59-2.88c-1.1,0.12-2.72-0.81-2.96,1.07
	c-0.17,1.29,0.83,2.21,1.91,2.88c2.2,1.37,4.81,0.89,7.2,1.43c1.25,0.29,3.31-0.04,3.04,1.96c-0.2,1.49-1.96,1.19-3.14,1.17
	c-7.78-0.07-15.57,0.17-23.3-0.87c-1.22-0.17-2.46-0.38-3.68-0.42c-1.02-0.04-2.32-0.19-2.7,1.02c-0.5,1.6,0.85,2.06,2.04,2.44
	c2.9,0.94,5.87,1.45,8.88,1.76h0.1c1.35,0.13,2.71,0.23,4.08,0.3l3.39,0.25l0.94,0.06c0.64,0.05,1.12,0.6,1.07,1.23l-0.01,0.06v0.01
	l-0.01,0.12c-0.05,0.63-0.61,1.11-1.25,1.06l-8.5-0.62c-0.12,0-0.24-0.03-0.34-0.07c-2.46-0.25-4.94-0.67-7.42-1.14
	c-2.32-0.43-5.99-2.9-6.83,0.6c-0.75,3.11,3.6,3.2,5.91,3.68c2.76,0.57,5.56,0.99,8.37,1.45h0.01c0.04,0,0.08-0.01,0.12,0l9.23,0.67
	c0.66,0.05,1.14,0.59,1.09,1.23l-0.01,0.03c-0.04,0.62-0.61,1.1-1.25,1.05l-7.74-0.56l-1.51-0.1c-0.02,0-0.06-0.01-0.11-0.01
	c-1.32-0.13-4.23-0.43-6.4-0.85c-3.83-0.74-5.21-1.78-6.28-1.06c-0.33,0.24-0.59,0.6-0.75,1.17c0,0-0.25,0.82,0.08,1.81
	c0.45,1.33,6.14,2.76,13.93,3.63l9.23,0.66c0.65,0.05,1.14,0.6,1.09,1.23l-0.02,0.03c-0.03,0.62-0.61,1.11-1.24,1.05
	c-1.28-0.09-2.28,0-3.83-0.1c-1.17-0.06-2.31-0.28-3.47-0.42c-3.12-0.4-3.63-0.41-5.33-0.69c-0.52-0.09-1.05-0.18-1.58-0.26
	c-2.66-0.42-3.12-0.42-3.59-0.18c-0.49,0.27-0.77,0.68-0.92,0.93c-0.09,0.25-0.19,0.66-0.09,1.11c0.46,1.98,4.55,2.63,6.03,2.85
	c18.31,2.88,32.33,0.18,40.55-2.41c0.03-0.01,0.05-0.01,0.08-0.02c4-0.92,7.92-2.28,11.78-4.05c1.07-0.49,1.88-0.65,2.56-0.64
	c0,0,0.76,0.01,1.5,0.25c0.56,0.18,2.99,1.22,6.32,13.54c0.17,0.63,0.44,1.67,0.07,2.83c-0.42,1.33-1.54,2.43-3.37,3.32
	c-10.47,5.08-22.1,7.62-34.87,7.62c-17.76,0-31.52-4.48-41.3-13.46C3.12,85.19,4.44,64.31,4.77,61.99c0.33-2.29,1.46-3.94,1.46-3.94
	s1.52-2.22,4.66-3.49c3.81-1.54,18.89-1.21,39.45,1.37c1.46,0.18,2.93,0.17,4.38-0.06c2.89-0.45,8.7-1.55,19.21-4.21
	c0.97-0.24,1.9-0.58,3.63-1.54c1.24-0.68,3.09-1.43,2.32-3.22c-0.74-1.72-2.3-0.32-3.44-0.03c-1.99,0.52-3.97,1.05-5.99,1.32
	l-0.04,0.01l-6.65,1.47c-0.59,0.14-1.17-0.24-1.29-0.84c-0.14-0.61,0.23-1.2,0.82-1.33l4.27-0.95l0.27-0.06
	c2.73-0.62,5.46-1.27,8.17-1.97c1.9-0.5,3.76-1.22,5.54-2.02c1.33-0.6,2.98-1.46,2.35-3.28c-0.78-2.23-2.47-0.9-3.73-0.44
	c-3.03,1.09-6.11,1.98-9.24,2.63c-0.03,0.01-0.04,0.02-0.07,0.02c-0.04,0.03-0.09,0.03-0.14,0.05L63,43.2
	c-0.59,0.13-1.17-0.25-1.3-0.86c-0.13-0.59,0.24-1.19,0.83-1.32l1.12-0.25h0.02l5.9-1.32h0.03c0.34-0.05,0.65-0.1,0.99-0.17
	c0.6-0.11,1.19-0.25,1.76-0.46c1.85-0.65,3.77-1.09,5.63-1.76c2.08-0.75,5.5-1.26,4.66-4.01c-0.96-3.07-3.96-0.87-5.91-0.29
	c-2.23,0.66-4.44,1.35-6.69,1.8c-0.05,0.03-0.09,0.03-0.14,0.04l-7.71,1.73c-0.59,0.14-1.17-0.25-1.29-0.84
	c-0.08-0.36,0.02-0.72,0.24-0.97c0.13-0.17,0.33-0.3,0.56-0.35c0.01,0,0.01,0,0.02-0.01l3.61-0.8l2.74-0.61l0.38-0.09
	c1.55-0.36,3.1-0.73,4.63-1.14c2.1-0.58,5.77-0.83,5.3-3.28c-0.61-3.04-3.89-0.93-5.86-0.67c-6.49,0.83-12.95,2.1-19.42,3.06
	c-1.48,0.23-3.89,1.13-4.16-1.01c-0.24-2,2.33-1.75,3.83-2.13c2.2-0.57,4.59-0.72,5.94-3.04c0.41-0.71,0.95-1.55,0.24-2.25
	c-0.35-0.35-1.19-0.26-1.8-0.23c-2.95,0.13-5.82,0.57-8.59,1.31c-5.35,1.44-10.6,4.92-12.94,6.15c-7.54,3.97-15.1,7.95-23.29,6.59
	h-0.02c-1.15-0.19-1.77-1.47-1.21-2.49c1.97-3.61,4.39-6.83,7.27-9.68c9.07-8.97,21.4-13.45,36.98-13.45
	c15.07,0,26.83,4.33,35.26,12.99C98.48,31.49,102.67,42.11,103.19,55.27z"/>
</svg>
